<svg width="39" height="67" fill="none" xmlns="http://www.w3.org/2000/svg"><path d="M4.09.584C2.42.992 1.07 2.396.704 4.129c-.16.782-.16 1.085 0 1.867.303 1.421-.106.968 8.71 9.722 4.398 4.372 10.201 10.157 12.903 12.841l4.905 4.897L14.55 46.208C6.41 54.41 1.762 59.148 1.54 59.485c-1.2 1.822-.836 4.514.8 5.918.524.462 1.466.933 2.115 1.076.71.142 1.901.062 2.532-.187.916-.338 1.502-.835 4.026-3.395 1.369-1.386 7.891-7.953 14.485-14.6 12.824-12.922 12.335-12.389 12.7-13.633.186-.63.186-1.875 0-2.506a4.58 4.58 0 0 0-.854-1.644C37.096 30.212 15.136 8.395 9.76 3.099 8.285 1.64 7.787 1.206 7.352.983a4.756 4.756 0 0 0-3.262-.4Z" fill="#35599C"/></svg>