<svg version="1.1" id="Слой_1" xmlns="http://www.w3.org/2000/svg" x="0" y="0" viewBox="0 0 1412.6 409" style="enable-background:new 0 0 1412.6 409" xml:space="preserve"><style>.st0{fill:#b5c0d6}.st15{fill:#fff}</style><path class="st0" d="m176 385.9-8.4 3.2v-24l8.4 3.2z"/><path class="st0" d="M714.5 388.1H613.3c-12.9 0-23.4-10.5-23.4-23.4v-36.9c0-7.1-5.8-12.9-12.9-12.9-7.1 0-12.9 5.8-12.9 12.9v32.8c0 12.9-10.5 23.4-23.4 23.4H154.1v-13h386.6c5.8 0 10.4-4.7 10.4-10.4v-32.8c0-14.3 11.6-25.9 25.9-25.9 14.3 0 25.9 11.6 25.9 25.9v36.9c0 5.8 4.7 10.4 10.4 10.4h101.2c5.8 0 10.4-4.7 10.4-10.4v-16c0-5.8-4.7-10.4-10.4-10.4H656c-10.9 0-20.4-7.7-22.5-18.4-.5-2.3-.5-38-.5-38.4h13c0 2.5.1 32 .3 36.1 1.1 4.4 5.1 7.6 9.7 7.6h58.5c12.9 0 23.4 10.5 23.4 23.4v16c0 13-10.5 23.5-23.4 23.5z"/><path style="opacity:.5;fill:#b5c0d6" d="M176 372.2h4.5V383H176z"/><path d="M225.8 409H82.1v-1c0-7.1 5.7-12.8 12.8-12.8h118c7.1 0 12.8 5.7 12.8 12.8v1z" style="fill:#6c7a8f"/><path style="fill:#a9b5c6" d="M147.5 126.3h13v113.1h-13z"/><path style="opacity:.4;fill:#70819a" d="M147.5 126.3h13v6.4h-13z"/><path d="M157.8 177.6H150c-5.4 0-9.8 4.4-9.8 9.8v207.8h27.4V187.4c0-5.4-4.4-9.8-9.8-9.8z" style="fill:#505d77"/><path d="M144.7 177.6c-2.5 0-4.5 2-4.5 4.5v208.6h10.2V177.6h-5.7z" style="opacity:.2;fill:#fff"/><path d="M218.4 120.5H89.5c-5.2 0-9.5-4.2-9.5-9.5 0-5.2 4.2-9.5 9.5-9.5h128.8c5.2 0 9.5 4.2 9.5 9.5 0 5.2-4.2 9.5-9.4 9.5z" style="fill:#ea4e57"/><path d="M156.3 126.3H151c-6.5 0-11.8-5.3-11.8-11.8v-7.1c0-6.5 5.3-11.8 11.8-11.8h5.3c6.5 0 11.8 5.3 11.8 11.8v7.1c0 6.6-5.3 11.8-11.8 11.8z" style="fill:#d2364a"/><path d="M168.1 120.5h6.5c-2.9-3.5-2.9-15.4 0-18.9h-6.5v18.9z" style="opacity:.5;fill:#d58144"/><path d="M144.6 95.7c-3 0-5.4 2.4-5.4 5.4v15.4c0 3 2.4 5.4 5.4 5.4h2.9V95.7h-2.9z" style="opacity:.2;fill:#707a9b"/><path d="M96 19.3c-1.7 0-3.2-1.4-3.2-3.2v-4c0-1.7 1.4-3.2 3.2-3.2 1.7 0 3.2 1.4 3.2 3.2v4c0 1.8-1.5 3.2-3.2 3.2zm16.8 39.8c-1.7 0-3.2-1.4-3.2-3.2V39.4c0-1.7 1.4-3.2 3.2-3.2 1.7 0 3.2 1.4 3.2 3.2v16.5c-.1 1.7-1.5 3.2-3.2 3.2zM96 94.2c-1.7 0-3.2-1.4-3.2-3.2V31.3c0-1.7 1.4-3.2 3.2-3.2 1.7 0 3.2 1.4 3.2 3.2v59.8c0 1.7-1.5 3.1-3.2 3.1zm115.9-74.9c-1.7 0-3.2-1.4-3.2-3.2v-4c0-1.7 1.4-3.2 3.2-3.2 1.7 0 3.2 1.4 3.2 3.2v4c0 1.8-1.4 3.2-3.2 3.2zm-16.8 66.8c-1.7 0-3.2-1.4-3.2-3.2V66.5c0-1.7 1.4-3.2 3.2-3.2 1.7 0 3.2 1.4 3.2 3.2V83c0 1.7-1.4 3.1-3.2 3.1zm16.8 8.1c-1.7 0-3.2-1.4-3.2-3.2V31.3c0-1.7 1.4-3.2 3.2-3.2 1.7 0 3.2 1.4 3.2 3.2v59.8c0 1.7-1.4 3.1-3.2 3.1z" style="fill:#d4dae6"/><path d="M0 349.5V178.2h27v147.4h91.9v23.9H0zm233.5-120.6v120.6h-27V178.2h21.2l97.9 123.5V178.5h27.3v171h-22.4l-97-120.6zm277.8 99.4c-14.5 15-31.1 22.4-49.9 22.4-11.4 0-22-2.4-31.8-7.1-9.8-4.7-18.3-11.1-25.6-19.2-7.2-8-12.9-17.4-17-28-4.1-10.6-6.2-21.7-6.2-33.3 0-11.6 2.1-22.6 6.2-33 4.1-10.5 9.8-19.6 17-27.5 7.2-7.9 15.8-14.1 25.8-18.7s20.8-6.9 32.6-6.9c16.4 0 30.1 3.4 41.2 10.3 11.1 6.8 19.5 15.9 25.1 27.1l-20.7 15c-4.7-9.3-11.1-16.3-19.3-21-8.2-4.7-17.2-7-27-7-8 0-15.4 1.7-21.9 5.2-6.6 3.5-12.2 8-16.9 13.7-4.7 5.7-8.2 12.3-10.7 19.9-2.5 7.6-3.7 15.4-3.7 23.6 0 8.7 1.4 16.8 4.2 24.4 2.8 7.6 6.7 14.2 11.6 19.8 4.9 5.6 10.7 10.1 17.5 13.4 6.8 3.3 14.1 4.9 21.9 4.9 8.7 0 17-2 25-6s15.6-10.4 22.8-19.1v-18.3h-35.9v-20H534v86.6h-22.7v-21.2zm234.9 21.2V178.2h71.9c7.7 0 14.8 1.6 21.3 4.8 6.5 3.2 12.1 7.4 16.8 12.7 4.7 5.2 8.3 11.2 11 17.8 2.7 6.7 4 13.5 4 20.4 0 7.2-1.2 14.2-3.7 20.9-2.5 6.7-6 12.6-10.5 17.8-4.5 5.2-9.9 9.4-16.3 12.5-6.4 3.1-13.4 4.7-21.1 4.7h-46.3v59.6h-27.1zm27.1-83.5h44.6c3.9 0 7.4-.8 10.5-2.4 3.1-1.6 5.8-3.9 8.1-6.8 2.2-2.9 4-6.3 5.3-10.1 1.3-3.9 1.9-8.1 1.9-12.8 0-4.8-.7-9.2-2.2-13-1.4-3.9-3.5-7.2-6-10-2.6-2.8-5.5-5-8.8-6.5-3.3-1.5-6.7-2.3-10.3-2.3h-43.2V266zm194.6 60.3c9 0 16.5-1.8 22.4-5.3 5.9-3.5 10.7-8.2 14.4-13.9 3.6-5.7 6.2-12.2 7.7-19.5 1.5-7.3 2.3-14.8 2.3-22.6v-86.8h27.3V265c0 11.7-1.4 22.8-4.1 33.2-2.7 10.4-7.1 19.5-13 27.3-6 7.8-13.6 14-23 18.5s-20.7 6.8-33.9 6.8c-13.7 0-25.2-2.4-34.6-7.1-9.4-4.7-17-11.1-22.8-19.1s-10-17.1-12.5-27.4c-2.6-10.3-3.9-21-3.9-32.1v-86.8h27v86.8c0 7.9.8 15.5 2.3 22.8 1.5 7.3 4.1 13.8 7.7 19.5 3.6 5.7 8.4 10.3 14.5 13.7 5.9 3.5 13.3 5.2 22.2 5.2zm254 23.2V226.2l-50.9 93.3h-15l-51.1-93.3v123.2h-27V178.2h28.9l56.7 104.7 56.7-104.7h28.9v171.2h-27.2zm65.8 0V178.2h71.9c7.7 0 14.8 1.6 21.3 4.8 6.5 3.2 12.1 7.4 16.8 12.7 4.7 5.2 8.3 11.2 11 17.8 2.7 6.7 4 13.5 4 20.4 0 7.2-1.2 14.2-3.7 20.9-2.5 6.7-6 12.6-10.5 17.8-4.5 5.2-9.9 9.4-16.3 12.5-6.4 3.1-13.4 4.7-21.1 4.7h-46.3v59.6h-27.1zm27-83.5h44.6c3.9 0 7.4-.8 10.5-2.4 3.1-1.6 5.8-3.9 8.1-6.8 2.2-2.9 4-6.3 5.3-10.1 1.3-3.9 1.9-8.1 1.9-12.8 0-4.8-.7-9.2-2.2-13-1.4-3.9-3.5-7.2-6-10-2.6-2.8-5.5-5-8.8-6.5-3.3-1.5-6.7-2.3-10.3-2.3h-43.2V266z" style="fill:#172640"/><linearGradient id="SVGID_1_" gradientUnits="userSpaceOnUse" x1="643.846" y1="241.962" x2="735.95" y2="241.962"><stop offset="0" style="stop-color:#e51e3b"/><stop offset="1" style="stop-color:#ea4e57"/></linearGradient><path d="M729.6 196.8c-1.3 1.4-2.9 2.7-4.8 3.7-3.1 1.7-6.4 2.1-9.3 2-2.5 0-4.7-.4-6.7-1-1.6 5.6-4.6 9.6-8.8 11.9-3.2 1.8-6.8 2.4-10 2.4-5.4 0-9.8-1.6-10-1.7l.1-.2-.1.1c-4 3.2-9.1 4.9-15.2 4.9-1.9 0-3.9-.2-6.1-.5-6.1-.9-11.2-4.8-14.8-8.5v38.2c1.1 3 3.1 6.8 6.7 9.3 3.7 2.6 8.6 3.3 14.4 2.1-.3-3.5.6-7.8 3.6-12.6l3.1 1.9c-8.2 13.1 2.3 20.2 2.8 20.5l-2 3c-.1-.1-5-3.3-6.8-9.3-2 .4-3.9.6-5.8.6-4.3 0-8.1-1.1-11.4-3.3-1.9-1.3-3.4-2.9-4.7-4.6v3.2c0 38.9 42 31.4 51.2 13.8h.3c1.7-3 3.4-7.2 3.2-11.8-.3-5.7-3.3-11.1-9-16.1-2.5 3.2-6.4 6.1-12.4 7.6l-.9-3.5c16.7-4.2 13.9-19.8 13.7-20.5l3.5-.7c0 .1 1.3 7.3-2 14 6.8 5.7 10.4 12.1 10.7 19 .2 4.6-1 8.7-2.6 11.9 7.3-1 16.2-7.1 19.6-17 0-.1 3.6-9.9-.9-18.3-2.9-5.4-8.5-9.1-16.7-11.1l.8-3.5c9.2 2.2 15.7 6.6 19.1 12.9 1.5 2.9 2.3 5.8 2.6 8.6 3.7-3.8 8.6-10.7 4.9-17.4 10.9-8.6 7.7-24.4.7-30z" style="fill:url(#SVGID_1_)"/><path class="st15" d="M668.1 287.7c-2.3 0-4.6-.3-6.8-.8-6.7-1.6-18.1-7.5-18.1-27.9v-4.9l1 1.4c1.3 1.8 2.8 3.3 4.5 4.4 4.4 3 10 4 16.7 2.6l.5-.1.2.5c1.5 4.7 4.9 7.7 6.1 8.6l1.3-2.1c-2.1-1.6-9.9-8.6-2.8-20.4l-2.1-1.3c-2.4 4.1-3.5 8-3.3 11.8v.5l-.5.1c-6 1.2-10.9.4-14.8-2.2-3.8-2.6-5.9-6.7-6.9-9.6v-39.8l1 1c3.2 3.3 8.3 7.4 14.4 8.3 8.7 1.3 15.7-.1 20.8-4.2l.1-.1 1.6-1.3-.6 1.6c1.3.4 5 1.5 9.3 1.5 3.7 0 7-.8 9.7-2.3 4.1-2.3 7-6.2 8.6-11.6l.2-.6.6.2c1.9.6 4.2.9 6.6 1 3.4.1 6.4-.5 9.1-1.9 1.8-1 3.4-2.2 4.7-3.6l.4-.4.4.3c4 3.2 6.6 9.3 6.5 15.5 0 6.1-2.5 11.5-7.1 15.3 3.5 7-1.7 14-5.2 17.6l-.8.9-.1-1.2c-.3-3.1-1.2-5.9-2.5-8.4-3.3-6.1-9.4-10.3-18.1-12.5l-.7 2.4c8 2 13.6 5.8 16.5 11.2 4 7.5 1.8 16 1.1 18.2l-.2.5c-3.7 10.5-13 16.3-20.1 17.4l-1.1.2.5-1c1.9-3.9 2.8-7.8 2.6-11.6-.3-6.7-3.9-13-10.5-18.6l-.3-.3.2-.4c2.8-5.5 2.3-11.3 2.1-13.1l-2.4.5c.4 2.9 1.3 16.3-13.7 20.4l.6 2.4c5-1.4 8.9-3.8 11.6-7.2l.4-.5.5.4c5.8 5.1 8.9 10.6 9.2 16.5.2 4-.9 8-3.2 12.1l-.2.3h-.2c-4.7 8.5-16.3 14.3-27.3 14.3zm-23.7-30.3v1.5c0 19.7 10.8 25.3 17.2 26.8 12.1 2.9 27.7-3.4 32.9-13.3l.2-.4h.3c2.1-3.7 3.1-7.5 2.9-11.1-.3-5.4-3.1-10.5-8.4-15.3-2.9 3.5-7.1 6-12.4 7.3l-.5.1-1.2-4.6.5-.1c16.2-4.1 13.4-19.2 13.3-19.8l-.1-.6 4.6-.9.1.6c0 .1 1.3 7.1-1.9 14 6.7 5.8 10.2 12.2 10.6 19.1.2 3.7-.6 7.5-2.2 11.2 6.5-1.3 14.5-6.7 17.9-15.9l.2-.6c0-.1 3.5-9.7-.9-17.9-2.8-5.3-8.3-8.9-16.3-10.8l-.5-.1 1.1-4.6.5.1c9.4 2.2 15.9 6.7 19.4 13.2 1.2 2.3 2.1 4.9 2.5 7.6 3.3-3.6 7.3-9.8 4-15.8l-.2-.4.4-.3c4.5-3.6 7-8.9 7-14.8 0-5.6-2.3-11.2-5.7-14.3-1.3 1.3-2.9 2.5-4.6 3.4-2.8 1.5-6 2.2-9.6 2.1-2.3 0-4.4-.3-6.3-.8-1.7 5.4-4.7 9.4-8.9 11.7-2.9 1.6-6.4 2.4-10.3 2.4-4.9 0-9.1-1.3-10-1.7-5.3 4.1-12.5 5.6-21.3 4.2-4.8-.7-9.6-3.4-14.1-7.7V248c1 2.8 2.9 6.5 6.5 9 3.5 2.4 8 3.1 13.5 2.1-.2-4 1.1-8.2 3.8-12.4l.3-.5 4 2.5-.3.5c-7.9 12.6 2.2 19.4 2.6 19.7l.5.3-2.6 4-.5-.3s-4.9-3.2-6.9-9.1c-6.8 1.2-12.5.2-17.1-2.9-1.6-1-2.9-2.1-4-3.5z"/><linearGradient id="SVGID_2_" gradientUnits="userSpaceOnUse" x1="643.846" y1="172.069" x2="730.363" y2="172.069"><stop offset="0" style="stop-color:#e51e3b"/><stop offset="1" style="stop-color:#ea4e57"/></linearGradient><path d="M682.5 146.4c-2.6 7.6-8.9 12.2-12.3 14.2 2.5 5 3 10.4 3.1 13.2 3.6-.2 7.9.8 12.8 4.1l-2 3c-12.8-8.7-20.3 1.5-20.6 1.9l-3-2.1c.1-.1 3.4-4.6 9.2-6.4 0-3.1-.6-12.3-6.7-17.5-4.4-3.7-10.8-4.8-19-3.2v50.6c3 3.7 8.5 9.4 15.3 10.4 7.8 1.2 14 0 18.4-3.6 6.3-5.1 6.9-13.6 6.9-13.7l3.6.2c0 .3-.5 7.5-5.4 13.4 3 .8 10 2.1 15.5-.9 3.5-1.9 5.9-5.3 7.2-10.2-1.4-.8-2.7-1.8-3.8-3-5.2-5.7-4.6-13.7-4.6-14.1l3.6.3c0 .1-.5 6.8 3.6 11.3.8.8 1.7 1.5 2.7 2.1l1.3.6c.1 0 8.2 3.5 14.9-.1 3.5-1.9 5.7-4.5 6.7-8 .3-1.1.5-2.2.6-3.3.1-5.7-1.7-12-7.4-13.6 3.3-11.9-4.7-24.3-14.7-26.6 2.1 7 1.7 12.9-1.2 17.6-5.2 8.6-16.4 9.8-16.9 9.8l-.4-3.6c.1 0 10-1.1 14.2-8.1 2.5-4.1 1.9-8.5.4-16.1-.3 0 .3 0 0 0-.8-8.1-11.2-18.5-22.7-16.2 2.1 6.6 2.5 12.4.7 17.6z" style="fill:url(#SVGID_2_)"/><path class="st15" d="M664.7 215.8c-1.8 0-3.6-.1-5.6-.4-7.1-1.1-12.9-7.1-15.7-10.6l-.1-.2v-51.3l.5-.1c8.4-1.6 15-.5 19.5 3.3 6.2 5.3 6.9 14.3 6.9 17.9v.4l-.4.1c-4.6 1.3-7.6 4.5-8.5 5.7l2 1.4c1.7-2 9-9.5 20.5-1.9l1.4-2c-4.1-2.7-8.1-3.9-11.9-3.7h-.6v-.6c-.1-2.7-.5-8-3-13l-.2-.5.5-.3c3.4-2 9.6-6.4 12.1-13.9 1.7-5.1 1.4-10.8-1-16.8l-.2-.6.7-.1c5.1-1 10.5.3 15.2 3.7 4.5 3.3 7.7 8.3 8.2 12.6.1.1.1.3.1.3v.2c1.5 7.1 2.1 11.8-.5 16.2-3.8 6.2-11.9 7.9-14.1 8.3l.2 2.5c2.4-.3 11.5-2.1 15.9-9.5 2.7-4.5 3.1-10.3 1.1-17.1l-.3-.9.9.2c5 1.2 9.6 4.8 12.7 9.9 3.1 5.2 4 11.4 2.6 16.9 4.8 1.6 7.5 6.8 7.3 14-.1 1.3-.3 2.4-.6 3.5-1.1 3.7-3.3 6.4-7 8.3-6.8 3.6-15 .2-15.3.1l-1.4-.6c-1.1-.6-2-1.4-2.8-2.2-3.6-3.9-3.8-9.4-3.8-11.2l-2.5-.2c-.1 1.9.1 8.3 4.4 13.1 1.1 1.1 2.3 2.1 3.7 2.9l.4.2-.1.4c-1.3 5-3.9 8.5-7.5 10.5-5.8 3.2-13.1 1.7-15.9.9l-.8-.2.6-.7c4.1-4.9 5-10.7 5.2-12.5l-2.5-.1c-.2 2-1.5 9-7.1 13.5-3.4 2.8-7.9 4.2-13.2 4.2zm-20.3-11.6c2.7 3.4 8.2 9 14.8 10 7.6 1.2 13.7 0 17.9-3.5 6.1-5 6.7-13.2 6.7-13.3v-.6l4.7.3v.6c0 .3-.4 7.1-5 13.1 3.1.7 9.3 1.7 14.3-1.1 3.2-1.8 5.5-5 6.8-9.4-1.3-.8-2.6-1.8-3.6-2.9-5.4-5.9-4.7-14.1-4.7-14.5v-.6l4.7.4v.6c0 .1-.5 6.6 3.5 10.9.7.7 1.5 1.4 2.5 2l1.3.6c.3.1 8.1 3.3 14.4 0 3.3-1.8 5.4-4.3 6.4-7.6.3-1 .5-2.1.6-3.2.1-2.6-.3-11.2-7-13l-.6-.1.2-.5c1.5-5.4.7-11.5-2.4-16.6-2.7-4.5-6.7-7.8-11-9.1 1.8 6.7 1.3 12.5-1.5 17.1-5.3 8.8-16.9 10-17.4 10.1l-.6.1-.5-4.7.6-.1c.1 0 9.7-1.1 13.8-7.8 2.2-3.7 1.9-7.5.4-15.2h-.1v-.3c-.1-.1-.1-.3-.1-.3s0-.1.1-.3c-.5-4.1-3.5-8.7-7.8-11.9-4.2-3.1-9-4.4-13.6-3.7 2.2 6 2.5 11.7.7 16.9-2.5 7.5-8.5 12-12.1 14.2 2.2 4.7 2.8 9.6 2.9 12.4 4-.1 8.3 1.4 12.5 4.3l.5.3-2.7 3.9-.5-.3c-12.3-8.4-19.5 1.4-19.8 1.8l-.3.5-3.9-2.7.3-.5s3.3-4.6 9.1-6.4c-.1-3.1-.8-11.8-6.5-16.6-4.1-3.5-10.2-4.6-18.1-3.1v49.8z"/><linearGradient id="SVGID_3_" gradientUnits="userSpaceOnUse" x1="643.846" y1="137.297" x2="680.007" y2="137.297"><stop offset="0" style="stop-color:#e51e3b"/><stop offset="1" style="stop-color:#ea4e57"/></linearGradient><path d="M665.2 154.2c1.2 1 2.2 2.1 3 3.3 3-1.7 8.6-5.7 10.8-12.3 1.8-5.4 1-11.5-2.5-18.1-2.8-4.5-8.6-10.1-17-10.1-10.6 0-15.8 8.7-15.8 19.9v13.2c9.2-1.6 16.4-.2 21.5 4.1z" style="fill:url(#SVGID_3_)"/><path class="st15" d="m668.1 158.3-.3-.4c-.9-1.2-1.9-2.3-3-3.2-5-4.2-12-5.6-20.9-4l-.7.1v-13.9c0-12.6 6.3-20.4 16.3-20.4 10.3 0 16 7.9 17.5 10.4 3.5 6.8 4.4 13.1 2.5 18.6-2.2 6.7-7.9 10.7-11.1 12.6l-.3.2zm-17.3-9.4c6 0 11 1.6 14.8 4.9 1 .9 2 1.9 2.8 3 3.1-1.9 8.1-5.7 10.1-11.7 1.7-5.2.9-11.2-2.4-17.7-1.4-2.3-6.8-9.8-16.5-9.8-11.2 0-15.2 10-15.2 19.3v12.5c2.3-.3 4.4-.5 6.4-.5z"/><linearGradient id="SVGID_4_" gradientUnits="userSpaceOnUse" x1="549.412" y1="182.771" x2="605.158" y2="182.771"><stop offset="0" style="stop-color:#1854a2"/><stop offset="1" style="stop-color:#6fa1d7"/></linearGradient><path d="M566.8 190.8c4.8 1 9.1 4.2 11.6 8.7 1 1.8 1.7 3.6 2 5.4 5.1-.2 9.4-2.2 11.5-5.3 1.8-2.6 1.8-5.9.1-9.5l-1-2.2 2.4-.4c4.5-.7 10-4 11.1-7.8 1.7-5.7.6-11.2-3.4-17.5-1.1.5-2.2 1-3.4 1.4-5.6 1.7-11.5.6-17.8-3-1.8 3.2-6.3 9.5-13.7 11.5-2.1.6-4.2.8-6.3.8-1.2 0-2.4-.1-3.6-.3-7.6 2.7-7.7 14.2-5.6 20.2 4.2-1.7 10.1-3.2 16.1-2z" style="fill:url(#SVGID_4_)"/><path class="st15" d="m579.9 205.5-.1-.5c-.3-1.8-.9-3.5-1.9-5.2-2.5-4.3-6.7-7.5-11.3-8.4-5.9-1.2-11.9.4-15.9 1.9l-.5.2-.2-.6c-1.5-4.2-1.8-11 .4-15.7 1.2-2.6 3.1-4.3 5.6-5.2h.2c1.2.2 2.4.2 3.5.2 2.1 0 4.2-.3 6.2-.8 7.1-1.9 11.4-7.8 13.4-11.2l.3-.5.5.3c6.1 3.6 12 4.6 17.4 2.9 1.1-.3 2.2-.8 3.3-1.3l.5-.2.3.4c4.1 6.5 5.2 12.1 3.5 18-1.2 4-6.9 7.5-11.5 8.2l-1.6.3.7 1.5c1.8 3.8 1.7 7.3-.1 10.1-2.1 3.2-6.6 5.3-11.9 5.5l-.8.1zm-13-15.2c4.9 1 9.4 4.4 12 9 .9 1.7 1.6 3.4 1.9 5.1 4.7-.3 8.7-2.2 10.6-5 1.6-2.5 1.7-5.6.1-9l-1.3-2.8 3.1-.5c4.3-.7 9.6-3.8 10.6-7.4 1.6-5.4.6-10.6-3.1-16.7-1 .5-2 .9-3 1.2-5.6 1.7-11.5.7-17.8-2.8-2.1 3.6-6.6 9.4-13.8 11.3-2.1.6-4.3.8-6.4.8-1.1 0-2.3-.1-3.5-.2-2.1.8-3.7 2.3-4.8 4.6-2 4.2-1.8 10.3-.6 14.3 4.1-1.7 10.1-3.1 16-1.9z"/><linearGradient id="SVGID_5_" gradientUnits="userSpaceOnUse" x1="556.096" y1="169.031" x2="635.931" y2="169.031"><stop offset="0" style="stop-color:#1854a2"/><stop offset="1" style="stop-color:#6fa1d7"/></linearGradient><path d="M565.2 168.6c8.2-2.2 12.2-11.2 12.3-11.3l.9-1.9 1.8 1.2c5.9 3.9 11.5 5.1 16.5 3.6 7.4-2.2 11.7-9.8 12.7-11.8-1.4-2.2-2.4-4.9-3.1-8l3.5-.8c1.4 5.9 3.9 9.7 7.4 11.4 5.1 2.5 11-.3 11-.3l1.6 3.3c-.2.1-3.6 1.7-7.8 1.7-2 0-4.2-.4-6.3-1.4-1.4-.7-2.7-1.6-3.8-2.7-1.3 2.3-3.9 6-7.7 8.9 3.1 4.9 6.3 12 3.8 20.5-1.2 4.1-5.4 7.4-9.8 9.2 7.4 4.9 13.6 6.6 18.6 4.9 6.5-2.2 8.7-9.5 8.7-9.6l3.5 1c-.1.4-2.8 9.1-11 12-1.7.6-3.4.8-5.2.8-4.8 0-10.1-1.9-16-5.7.4 3-.2 5.8-1.8 8.3-1.8 2.7-4.8 4.8-8.4 5.9 6.6.6 14.2 3.6 18 13.4 2.1-5.1 6.2-9.4 11.5-11.7 6.3-2.7 13.3-2.3 19.9 1v-73.4c0-11.2-5.2-19.9-15.8-19.9-10.6 0-17.1 8.9-18.5 13.2-12.8-5.5-25.3 6.5-25.3 15.2-11-1.1-21.4 10.9-20.1 23.5 2.8.3 5.9.3 8.9-.5z" style="fill:url(#SVGID_5_)"/><path class="st15" d="m604.5 222.5-.5-1.3c-3.1-7.9-9-12.3-17.5-13.1l-2.9-.2 2.7-.9c3.5-1.1 6.3-3.1 8.1-5.7 1.5-2.3 2.1-5 1.7-7.9l-.2-1.2 1 .7c8 5.2 15 6.8 20.7 4.8 6.9-2.4 9.8-9.1 10.5-11l-2.4-.7c-.7 1.8-3.2 7.5-8.9 9.4-5.1 1.7-11.6.1-19.1-4.9l-.9-.6 1-.4c3.8-1.5 8.3-4.6 9.5-8.8 1.9-6.5.6-13-3.8-20l-.3-.4.4-.3c3.7-2.7 6.1-6.3 7.5-8.7l.4-.6.5.5c1.1 1.1 2.3 2 3.6 2.6 1.8.9 3.9 1.3 6.1 1.3 3.2 0 5.9-.9 7-1.4l-1.1-2.2c-1.6.6-6.5 2.2-11 .1-3.6-1.7-6.1-5.5-7.6-11.2l-2.4.6c.7 2.8 1.7 5.3 2.9 7.3l.2.3-.1.3c-1.1 2.3-5.5 9.9-13.1 12.1-5.2 1.5-10.9.3-16.9-3.7l-1.2-.8-.6 1.3c-.2.4-4.3 9.4-12.6 11.6-2.9.8-6 .9-9.2.4l-.4-.1v-.4c-.7-6.7 1.8-13.6 6.7-18.5 3.9-3.9 8.7-5.9 13.4-5.6.3-4.6 3.8-10 8.8-13.3 3.1-2 9.3-4.9 16.6-2 1.8-4.6 8.3-13.1 18.9-13.1 10.1 0 16.3 7.8 16.3 20.4v74.3l-.8-.4c-6.4-3.2-13.3-3.6-19.4-1-5.1 2.2-9.2 6.3-11.2 11.4l-.4 1zm-15.7-15.2c5.6 1 12 4 15.7 12.3 2.3-4.8 6.3-8.6 11.3-10.7 6.1-2.6 13-2.4 19.5.6V137c0-9.3-4-19.3-15.2-19.3-10.4 0-16.6 8.7-18 12.9l-.2.6-.6-.2c-7.1-3.1-13.2-.3-16.1 1.7-4.9 3.2-8.4 8.6-8.4 13v.6l-.6-.1c-4.6-.5-9.3 1.5-13.1 5.2-4.6 4.6-7 11-6.5 17.2 2.9.4 5.7.3 8.3-.4 7.8-2.1 11.8-10.9 11.9-11l1.1-2.6 2.3 1.5c5.8 3.8 11.2 5 16 3.5 6.9-2 11-8.8 12.2-11.3-1.3-2.2-2.3-4.9-3.1-7.9l-.1-.6 4.6-1.1.1.5c1.3 5.7 3.7 9.4 7.1 11 4.8 2.3 10.5-.3 10.5-.3l.5-.2 2.1 4.3-.5.2c-.4.2-3.7 1.7-8 1.7-2.4 0-4.6-.5-6.6-1.4-1.2-.6-2.4-1.4-3.4-2.3-1.5 2.4-3.8 5.5-7.1 8.1 4.4 7.1 5.6 13.8 3.6 20.5-1.2 4.2-5.4 7.4-9.2 9.2 6.9 4.4 12.7 5.8 17.3 4.2 6.2-2.1 8.4-9.1 8.4-9.2l.2-.5 4.5 1.3-.2.5c-.1.4-2.9 9.4-11.4 12.3-5.8 2-12.9.5-20.7-4.3.1 2.7-.5 5.3-2 7.5-1.2 2.4-3.4 4.2-6.2 5.5z"/><linearGradient id="SVGID_6_" gradientUnits="userSpaceOnUse" x1="543.825" y1="240.571" x2="635.931" y2="240.571"><stop offset="0" style="stop-color:#1854a2"/><stop offset="1" style="stop-color:#6fa1d7"/></linearGradient><path d="M617.5 212.6c-5.7 2.4-9.8 7.6-10.6 13.6l-.3 2.3-2.1-.8c-4.8-1.9-10.7-1.1-14 .7-5.6 3-9.5 10.3-5.9 19.4 6.5-1.6 12.9 1 17.8 7.2h.1c6-4.7 13.9-4.3 21.7 1l-2 3c-6.4-4.4-12.8-4.8-17.5-1.1-4.4 3.4-6.2 9.6-4.4 14.8l-3.4 1.2c-1.9-5.4-.7-11.7 2.9-16.2-4.1-5.4-9.3-7.7-14.6-6.2-5.3 1.4-9.4 6.5-9.7 11.9l-3.6-.2c.3-5.9 4-11.3 9.3-14-4.2-10.7.4-20 7.6-23.8 3-1.6 7.9-2.7 12.8-2-4.5-12.8-16-12.9-22.9-11.7l-3 .5 1-2.9c.7-2.2.3-5.1-1.3-7.9-2-3.6-5.5-6.2-9.2-6.9-6.1-1.3-12.4.9-16.2 2.7-6.7 5.9-9.6 21.3 1.3 30-5.1 9.1 6 18.8 8.2 20.2.2 17.3 16.1 27.2 25.5 25.5 9.1 17.6 51.2 25 51.2-13.8v-44.5c-6.3-3.7-12.9-4.4-18.7-2z" style="fill:url(#SVGID_6_)"/><path class="st15" d="M611.7 287.7c-11 0-22.6-5.8-27.2-14.3-4.8.7-10.9-1.4-15.9-5.5-3.6-3-9.6-9.5-9.9-20.3-3.1-2.2-12.8-11.5-8.3-20.4-4.4-3.7-7-9-7.1-14.9-.1-6.1 2.3-12.2 6.2-15.6l.1-.1c4.2-1.9 10.5-4 16.6-2.7 3.9.8 7.5 3.5 9.6 7.2 1.6 2.9 2.1 6 1.3 8.3l-.7 2 2.1-.4c6.8-1.2 18.9-1.3 23.5 12l.3.9-.9-.1c-5.2-.7-9.9.6-12.5 2-6.5 3.5-11.6 12.3-7.3 23.1l.2.5-.5.2c-5 2.6-8.4 7.6-8.9 13l2.5.1c.5-5.5 4.7-10.4 10.1-11.9 5.4-1.5 10.9.9 15.2 6.4l.3.4-.3.3c-3.4 4.3-4.6 10.1-3 15.1l2.3-.8c-1.6-5.3.3-11.4 4.7-14.9 4.8-3.7 11.2-3.4 17.7.8l1.4-2.1c-7.4-4.8-14.9-5.1-20.6-.7l-.5.4-.3-.4c-4.8-6.1-10.9-8.6-17.2-7l-.5.1-.2-.5c-3.8-9.5.4-17 6.2-20.1 3.4-1.9 9.5-2.7 14.5-.8l1.5.6.2-1.6c.8-6.1 5-11.5 11-14 5.9-2.5 12.7-1.9 19 1.8l.3.2v45c0 20.5-11.3 26.3-18.1 27.9-2.3.6-4.6.8-6.9.8zm-26.6-15.5.2.4c5.2 9.9 20.8 16.2 32.9 13.3 6.4-1.6 17.2-7.1 17.2-26.8v-44.2c-5.9-3.4-12.2-3.9-17.7-1.6-5.6 2.4-9.5 7.4-10.3 13.1l-.4 3-2.8-1.1c-4.7-1.8-10.4-1-13.5.7-5.3 2.9-9 9.6-5.9 18.2 6.4-1.4 12.6 1.1 17.6 7.1 6.2-4.5 14.1-4.1 22 1.3l.5.3-2.7 3.9-.5-.3c-6.2-4.2-12.3-4.6-16.8-1.2-4.2 3.2-5.9 9.2-4.2 14.1l.2.5-4.5 1.6-.2-.5c-1.9-5.3-.9-11.7 2.7-16.4-4-5-8.8-7-13.7-5.7-5.1 1.4-9 6.2-9.3 11.4v.6l-4.7-.2v-.6c.3-5.8 3.9-11.4 9.1-14.3-4.2-11.3 1.2-20.4 8-24.1 2.6-1.4 7.2-2.7 12.2-2.2-4.6-11.7-15.6-11.6-21.9-10.4l-4 .7 1.3-3.8c.7-2 .2-4.8-1.3-7.4-2-3.4-5.3-5.9-8.9-6.7-5.8-1.2-11.8.8-15.8 2.6-3.6 3.2-5.9 9-5.7 14.7.1 5.7 2.6 10.8 7 14.4l.4.3-.2.4c-4.7 8.5 5.3 17.7 8 19.5l.2.2v.3c.1 10.5 6 16.9 9.5 19.8 4.8 4 10.8 6 15.4 5.2l.6-.1z"/></svg>