<svg width="39" height="67" viewBox="0 0 39 67" fill="none" xmlns="http://www.w3.org/2000/svg">
<path d="M4.09028 0.58358C2.41958 0.992369 1.0688 2.39647 0.704443 4.12938C0.544482 4.91141 0.544482 5.21356 0.704443 5.99559C1.00659 7.41747 0.597803 6.96424 9.41343 15.7177C13.8124 20.0899 19.6154 25.8752 22.3169 28.559L27.2224 33.4556L14.55 46.208C6.40972 54.4104 1.76196 59.1471 1.53979 59.4848C0.340088 61.3065 0.704443 63.9992 2.3396 65.4033C2.86392 65.8654 3.80591 66.3364 4.45464 66.4786C5.16558 66.6208 6.3564 66.5408 6.98735 66.292C7.90269 65.9543 8.48921 65.4566 11.013 62.8973C12.3816 61.5109 18.9044 54.9436 25.4984 48.2964C38.3219 35.3751 37.8332 35.9083 38.1975 34.6641C38.3841 34.0332 38.3841 32.789 38.1975 32.1581C38.0109 31.5182 37.7087 30.9495 37.3444 30.514C37.0956 30.2119 15.1365 8.39501 9.76001 3.09852C8.28481 1.6411 7.78716 1.20565 7.35171 0.983482C6.31196 0.459166 5.16558 0.325865 4.09028 0.58358Z" fill="#35599C"/>
</svg>
