<?xml version="1.0" encoding="utf-8"?>
<!-- Generator: Adobe Illustrator 19.1.1, SVG Export Plug-In . SVG Version: 6.00 Build 0)  -->
<svg version="1.1" id="Слой_1" xmlns="http://www.w3.org/2000/svg" xmlns:xlink="http://www.w3.org/1999/xlink" x="0px" y="0px"
	 viewBox="0 0 1412.6 409" style="enable-background:new 0 0 1412.6 409;" xml:space="preserve">
<style type="text/css">
	.st0{fill:#B5C0D6;}
	.st1{opacity:0.5;fill:#B5C0D6;}
	.st2{fill:#6C7A8F;}
	.st3{fill:#A9B5C6;}
	.st4{opacity:0.4;fill:#70819A;}
	.st5{fill:#505D77;}
	.st6{opacity:0.2;fill:#FFFFFF;}
	.st7{fill:#EA4E57;}
	.st8{fill:#D2364A;}
	.st9{opacity:0.5;fill:#D58144;}
	.st10{opacity:0.2;fill:#707A9B;}
	.st11{fill:#D4DAE6;}
	.st12{fill:none;stroke:#B5C0D6;stroke-width:23;stroke-miterlimit:10;}
	.st13{fill:#172640;}
	.st14{fill:url(#SVGID_1_);}
	.st15{fill:#FFFFFF;}
	.st16{fill:url(#SVGID_2_);}
	.st17{fill:url(#SVGID_3_);}
	.st18{fill:url(#SVGID_4_);}
	.st19{fill:url(#SVGID_5_);}
	.st20{fill:url(#SVGID_6_);}
</style>
<polygon class="st0" points="176,385.9 167.6,389.1 167.6,365.1 176,368.3 "/>
<path class="st0" d="M714.5,388.1H613.3c-12.9,0-23.4-10.5-23.4-23.4v-36.9c0-7.1-5.8-12.9-12.9-12.9c-7.1,0-12.9,5.8-12.9,12.9
	v32.8c0,12.9-10.5,23.4-23.4,23.4l-386.6,0v-13l386.6,0c5.8,0,10.4-4.7,10.4-10.4v-32.8c0-14.3,11.6-25.9,25.9-25.9
	c14.3,0,25.9,11.6,25.9,25.9v36.9c0,5.8,4.7,10.4,10.4,10.4h101.2c5.8,0,10.4-4.7,10.4-10.4v-16c0-5.8-4.7-10.4-10.4-10.4h-58.5
	c-10.9,0-20.4-7.7-22.5-18.4c-0.5-2.3-0.5-38-0.5-38.4h13c0,2.5,0.1,32,0.3,36.1c1.1,4.4,5.1,7.6,9.7,7.6h58.5
	c12.9,0,23.4,10.5,23.4,23.4v16C737.9,377.6,727.4,388.1,714.5,388.1z"/>
<rect x="176" y="372.2" class="st1" width="4.5" height="10.8"/>
<g>
	<path class="st2" d="M225.8,409H82.1v-1c0-7.1,5.7-12.8,12.8-12.8h118c7.1,0,12.8,5.7,12.8,12.8V409z"/>
	<g>
		<rect x="147.5" y="126.3" class="st3" width="13" height="113.1"/>
		<rect x="147.5" y="126.3" class="st4" width="13" height="6.4"/>
	</g>
	<g>
		<path class="st5" d="M157.8,177.6h-7.8c-5.4,0-9.8,4.4-9.8,9.8v207.8h27.4V187.4C167.6,182,163.2,177.6,157.8,177.6z"/>
		<path class="st6" d="M144.7,177.6c-2.5,0-4.5,2-4.5,4.5v208.6h10.2V177.6H144.7z"/>
	</g>
	<g>
		<path class="st7" d="M218.4,120.5H89.5c-5.2,0-9.5-4.2-9.5-9.5v0c0-5.2,4.2-9.5,9.5-9.5h128.8c5.2,0,9.5,4.2,9.5,9.5v0
			C227.8,116.2,223.6,120.5,218.4,120.5z"/>
		<path class="st8" d="M156.3,126.3H151c-6.5,0-11.8-5.3-11.8-11.8v-7.1c0-6.5,5.3-11.8,11.8-11.8h5.3c6.5,0,11.8,5.3,11.8,11.8v7.1
			C168.1,121.1,162.8,126.3,156.3,126.3z"/>
		<path class="st9" d="M168.1,120.5h6.5c-2.9-3.5-2.9-15.4,0-18.9h-6.5V120.5z"/>
		<path class="st10" d="M144.6,95.7c-3,0-5.4,2.4-5.4,5.4v15.4c0,3,2.4,5.4,5.4,5.4h2.9V95.7H144.6z"/>
	</g>
	<g>
		<path class="st11" d="M96,19.3c-1.7,0-3.2-1.4-3.2-3.2v-4c0-1.7,1.4-3.2,3.2-3.2c1.7,0,3.2,1.4,3.2,3.2v4
			C99.2,17.9,97.7,19.3,96,19.3z"/>
		<path class="st11" d="M112.8,59.1c-1.7,0-3.2-1.4-3.2-3.2V39.4c0-1.7,1.4-3.2,3.2-3.2c1.7,0,3.2,1.4,3.2,3.2v16.5
			C115.9,57.6,114.5,59.1,112.8,59.1z"/>
		<g>
			<path class="st11" d="M96,94.2c-1.7,0-3.2-1.4-3.2-3.2V31.3c0-1.7,1.4-3.2,3.2-3.2c1.7,0,3.2,1.4,3.2,3.2v59.8
				C99.2,92.8,97.7,94.2,96,94.2z"/>
		</g>
		<path class="st11" d="M211.9,19.3c-1.7,0-3.2-1.4-3.2-3.2v-4c0-1.7,1.4-3.2,3.2-3.2c1.7,0,3.2,1.4,3.2,3.2v4
			C215.1,17.9,213.7,19.3,211.9,19.3z"/>
		<path class="st11" d="M195.1,86.1c-1.7,0-3.2-1.4-3.2-3.2V66.5c0-1.7,1.4-3.2,3.2-3.2c1.7,0,3.2,1.4,3.2,3.2V83
			C198.3,84.7,196.9,86.1,195.1,86.1z"/>
		<g>
			<path class="st11" d="M211.9,94.2c-1.7,0-3.2-1.4-3.2-3.2V31.3c0-1.7,1.4-3.2,3.2-3.2c1.7,0,3.2,1.4,3.2,3.2v59.8
				C215.1,92.8,213.7,94.2,211.9,94.2z"/>
		</g>
	</g>
</g>
<path class="st12" d="M636.2,303.9"/>
<path class="st12" d="M636.2,288.3"/>
<g>
	<path class="st13" d="M0,349.5V178.2h27v147.4h91.9v23.9H0z"/>
	<path class="st13" d="M233.5,228.9v120.6h-27V178.2h21.2l97.9,123.5V178.5h27.3v171h-22.4L233.5,228.9z"/>
	<path class="st13" d="M511.3,328.3c-14.5,15-31.1,22.4-49.9,22.4c-11.4,0-22-2.4-31.8-7.1c-9.8-4.7-18.3-11.1-25.6-19.2
		c-7.2-8-12.9-17.4-17-28c-4.1-10.6-6.2-21.7-6.2-33.3c0-11.6,2.1-22.6,6.2-33c4.1-10.5,9.8-19.6,17-27.5
		c7.2-7.9,15.8-14.1,25.8-18.7c10-4.6,20.8-6.9,32.6-6.9c16.4,0,30.1,3.4,41.2,10.3c11.1,6.8,19.5,15.9,25.1,27.1l-20.7,15
		c-4.7-9.3-11.1-16.3-19.3-21c-8.2-4.7-17.2-7-27-7c-8,0-15.4,1.7-21.9,5.2c-6.6,3.5-12.2,8-16.9,13.7c-4.7,5.7-8.2,12.3-10.7,19.9
		c-2.5,7.6-3.7,15.4-3.7,23.6c0,8.7,1.4,16.8,4.2,24.4c2.8,7.6,6.7,14.2,11.6,19.8c4.9,5.6,10.7,10.1,17.5,13.4
		c6.8,3.3,14.1,4.9,21.9,4.9c8.7,0,17-2,25-6c8-4,15.6-10.4,22.8-19.1v-18.3h-35.9v-20H534v86.6h-22.7V328.3z"/>
	<path class="st13" d="M746.2,349.5V178.2h71.9c7.7,0,14.8,1.6,21.3,4.8c6.5,3.2,12.1,7.4,16.8,12.7c4.7,5.2,8.3,11.2,11,17.8
		c2.7,6.7,4,13.5,4,20.4c0,7.2-1.2,14.2-3.7,20.9c-2.5,6.7-6,12.6-10.5,17.8c-4.5,5.2-9.9,9.4-16.3,12.5c-6.4,3.1-13.4,4.7-21.1,4.7
		h-46.3v59.6H746.2z M773.3,266h44.6c3.9,0,7.4-0.8,10.5-2.4c3.1-1.6,5.8-3.9,8.1-6.8c2.2-2.9,4-6.3,5.3-10.1
		c1.3-3.9,1.9-8.1,1.9-12.8c0-4.8-0.7-9.2-2.2-13c-1.4-3.9-3.5-7.2-6-10c-2.6-2.8-5.5-5-8.8-6.5c-3.3-1.5-6.7-2.3-10.3-2.3h-43.2
		V266z"/>
	<path class="st13" d="M967.9,326.3c9,0,16.5-1.8,22.4-5.3c5.9-3.5,10.7-8.2,14.4-13.9c3.6-5.7,6.2-12.2,7.7-19.5
		c1.5-7.3,2.3-14.8,2.3-22.6v-86.8h27.3v86.8c0,11.7-1.4,22.8-4.1,33.2c-2.7,10.4-7.1,19.5-13,27.3c-6,7.8-13.6,14-23,18.5
		c-9.4,4.5-20.7,6.8-33.9,6.8c-13.7,0-25.2-2.4-34.6-7.1c-9.4-4.7-17-11.1-22.8-19.1s-10-17.1-12.5-27.4c-2.6-10.3-3.9-21-3.9-32.1
		v-86.8h27v86.8c0,7.9,0.8,15.5,2.3,22.8c1.5,7.3,4.1,13.8,7.7,19.5c3.6,5.7,8.4,10.3,14.5,13.7C951.6,324.6,959,326.3,967.9,326.3z
		"/>
	<path class="st13" d="M1221.9,349.5V226.2l-50.9,93.3h-15l-51.1-93.3v123.2h-27V178.2h28.9l56.7,104.7l56.7-104.7h28.9v171.2
		H1221.9z"/>
	<path class="st13" d="M1287.7,349.5V178.2h71.9c7.7,0,14.8,1.6,21.3,4.8c6.5,3.2,12.1,7.4,16.8,12.7c4.7,5.2,8.3,11.2,11,17.8
		c2.7,6.7,4,13.5,4,20.4c0,7.2-1.2,14.2-3.7,20.9c-2.5,6.7-6,12.6-10.5,17.8c-4.5,5.2-9.9,9.4-16.3,12.5c-6.4,3.1-13.4,4.7-21.1,4.7
		h-46.3v59.6H1287.7z M1314.7,266h44.6c3.9,0,7.4-0.8,10.5-2.4c3.1-1.6,5.8-3.9,8.1-6.8c2.2-2.9,4-6.3,5.3-10.1
		c1.3-3.9,1.9-8.1,1.9-12.8c0-4.8-0.7-9.2-2.2-13c-1.4-3.9-3.5-7.2-6-10c-2.6-2.8-5.5-5-8.8-6.5c-3.3-1.5-6.7-2.3-10.3-2.3h-43.2
		V266z"/>
</g>
<g>
	<g>
		<g>
			<linearGradient id="SVGID_1_" gradientUnits="userSpaceOnUse" x1="643.8461" y1="241.9624" x2="735.9501" y2="241.9624">
				<stop  offset="0" style="stop-color:#E51E3B"/>
				<stop  offset="1" style="stop-color:#EA4E57"/>
			</linearGradient>
			<path class="st14" d="M729.6,196.8c-1.3,1.4-2.9,2.7-4.8,3.7c-3.1,1.7-6.4,2.1-9.3,2c-2.5,0-4.7-0.4-6.7-1
				c-1.6,5.6-4.6,9.6-8.8,11.9c-3.2,1.8-6.8,2.4-10,2.4c-5.4,0-9.8-1.6-10-1.7l0.1-0.2c0,0-0.1,0.1-0.1,0.1c-4,3.2-9.1,4.9-15.2,4.9
				c-1.9,0-3.9-0.2-6.1-0.5c-6.1-0.9-11.2-4.8-14.8-8.5c0,14.9,0,28.8,0,38.2c1.1,3,3.1,6.8,6.7,9.3c3.7,2.6,8.6,3.3,14.4,2.1
				c-0.3-3.5,0.6-7.8,3.6-12.6l3.1,1.9c-8.2,13.1,2.3,20.2,2.8,20.5l-2,3c-0.1-0.1-5-3.3-6.8-9.3c-2,0.4-3.9,0.6-5.8,0.6
				c-4.3,0-8.1-1.1-11.4-3.3c-1.9-1.3-3.4-2.9-4.7-4.6c0,1.3,0,2.4,0,3.2c0,38.9,42,31.4,51.2,13.8c0.1,0,0.2,0,0.3,0
				c1.7-3,3.4-7.2,3.2-11.8c-0.3-5.7-3.3-11.1-9-16.1c-2.5,3.2-6.4,6.1-12.4,7.6l-0.9-3.5c16.7-4.2,13.9-19.8,13.7-20.5l3.5-0.7
				c0,0.1,1.3,7.3-2,14c6.8,5.7,10.4,12.1,10.7,19c0.2,4.6-1,8.7-2.6,11.9c7.3-1,16.2-7.1,19.6-17l0,0c0-0.1,3.6-9.9-0.9-18.3
				c-2.9-5.4-8.5-9.1-16.7-11.1l0.8-3.5c9.2,2.2,15.7,6.6,19.1,12.9c1.5,2.9,2.3,5.8,2.6,8.6c3.7-3.8,8.6-10.7,4.9-17.4
				C739.8,218.2,736.6,202.4,729.6,196.8z"/>
			<path class="st15" d="M668.1,287.7c-2.3,0-4.6-0.3-6.8-0.8c-6.7-1.6-18.1-7.5-18.1-27.9v-4.9l1,1.4c1.3,1.8,2.8,3.3,4.5,4.4
				c4.4,3,10,4,16.7,2.6l0.5-0.1l0.2,0.5c1.5,4.7,4.9,7.7,6.1,8.6l1.3-2.1c-2.1-1.6-9.9-8.6-2.8-20.4l-2.1-1.3
				c-2.4,4.1-3.5,8-3.3,11.8l0,0.5l-0.5,0.1c-6,1.2-10.9,0.4-14.8-2.2c-3.8-2.6-5.9-6.7-6.9-9.6l0-0.1v-39.7l1,1
				c3.2,3.3,8.3,7.4,14.4,8.3c8.7,1.3,15.7-0.1,20.8-4.2l0.1-0.1l1.6-1.3l-0.6,1.6c1.3,0.4,5,1.5,9.3,1.5c3.7,0,7-0.8,9.7-2.3
				c4.1-2.3,7-6.2,8.6-11.6l0.2-0.6l0.6,0.2c1.9,0.6,4.2,0.9,6.6,1c3.4,0.1,6.4-0.5,9.1-1.9c1.8-1,3.4-2.2,4.7-3.6l0.4-0.4l0.4,0.3
				c4,3.2,6.6,9.3,6.5,15.5c0,6.1-2.5,11.5-7.1,15.3c3.5,7-1.7,14-5.2,17.6l-0.8,0.9l-0.1-1.2c-0.3-3.1-1.2-5.9-2.5-8.4
				c-3.3-6.1-9.4-10.3-18.1-12.5L702,226c8,2,13.6,5.8,16.5,11.2c4,7.5,1.8,16,1.1,18.2l0,0l-0.2,0.5c-3.7,10.5-13,16.3-20.1,17.4
				l-1.1,0.2l0.5-1c1.9-3.9,2.8-7.8,2.6-11.6c-0.3-6.7-3.9-13-10.5-18.6l-0.3-0.3l0.2-0.4c2.8-5.5,2.3-11.3,2.1-13.1l-2.4,0.5
				c0.4,2.9,1.3,16.3-13.7,20.4l0.6,2.4c5-1.4,8.9-3.8,11.6-7.2l0.4-0.5l0.5,0.4c5.8,5.1,8.9,10.6,9.2,16.5c0.2,4-0.9,8-3.2,12.1
				l-0.2,0.3l-0.2,0C690.7,281.9,679.1,287.7,668.1,287.7z M644.4,257.4v1.5c0,19.7,10.8,25.3,17.2,26.8
				c12.1,2.9,27.7-3.4,32.9-13.3l0.2-0.4l0.3,0c2.1-3.7,3.1-7.5,2.9-11.1c-0.3-5.4-3.1-10.5-8.4-15.3c-2.9,3.5-7.1,6-12.4,7.3
				l-0.5,0.1l-1.2-4.6l0.5-0.1c16.2-4.1,13.4-19.2,13.3-19.8l-0.1-0.6l4.6-0.9l0.1,0.6c0,0.1,1.3,7.1-1.9,14
				c6.7,5.8,10.2,12.2,10.6,19.1c0.2,3.7-0.6,7.5-2.2,11.2c6.5-1.3,14.5-6.7,17.9-15.9l0,0l0.2-0.6c0-0.1,3.5-9.7-0.9-17.9
				c-2.8-5.3-8.3-8.9-16.3-10.8l-0.5-0.1l1.1-4.6l0.5,0.1c9.4,2.2,15.9,6.7,19.4,13.2c1.2,2.3,2.1,4.9,2.5,7.6
				c3.3-3.6,7.3-9.8,4-15.8l-0.2-0.4l0.4-0.3c4.5-3.6,7-8.9,7-14.8c0-5.6-2.3-11.2-5.7-14.3c-1.3,1.3-2.9,2.5-4.6,3.4
				c-2.8,1.5-6,2.2-9.6,2.1c-2.3,0-4.4-0.3-6.3-0.8c-1.7,5.4-4.7,9.4-8.9,11.7c-2.9,1.6-6.4,2.4-10.3,2.4c-4.9,0-9.1-1.3-10-1.7
				c-5.3,4.1-12.5,5.6-21.3,4.2c-4.8-0.7-9.6-3.4-14.1-7.7V248c1,2.8,2.9,6.5,6.5,9c3.5,2.4,8,3.1,13.5,2.1c-0.2-4,1.1-8.2,3.8-12.4
				l0.3-0.5l4,2.5l-0.3,0.5c-7.9,12.6,2.2,19.4,2.6,19.7l0.5,0.3l-2.6,4l-0.5-0.3c0,0-4.9-3.2-6.9-9.1c-6.8,1.2-12.5,0.2-17.1-2.9
				C646.8,259.9,645.5,258.8,644.4,257.4z"/>
		</g>
		<g>
			<linearGradient id="SVGID_2_" gradientUnits="userSpaceOnUse" x1="643.8461" y1="172.069" x2="730.3626" y2="172.069">
				<stop  offset="0" style="stop-color:#E51E3B"/>
				<stop  offset="1" style="stop-color:#EA4E57"/>
			</linearGradient>
			<path class="st16" d="M682.5,146.4c-2.6,7.6-8.9,12.2-12.3,14.2c2.5,5,3,10.4,3.1,13.2c3.6-0.2,7.9,0.8,12.8,4.1l-2,3
				c-12.8-8.7-20.3,1.5-20.6,1.9l-3-2.1c0.1-0.1,3.4-4.6,9.2-6.4c0-3.1-0.6-12.3-6.7-17.5c-4.4-3.7-10.8-4.8-19-3.2
				c0,13.3,0,32.3,0,50.6c3,3.7,8.5,9.4,15.3,10.4c7.8,1.2,14,0,18.4-3.6c6.3-5.1,6.9-13.6,6.9-13.7l3.6,0.2c0,0.3-0.5,7.5-5.4,13.4
				c3,0.8,10,2.1,15.5-0.9c3.5-1.9,5.9-5.3,7.2-10.2c-1.4-0.8-2.7-1.8-3.8-3c-5.2-5.7-4.6-13.7-4.6-14.1l3.6,0.3
				c0,0.1-0.5,6.8,3.6,11.3c0.8,0.8,1.7,1.5,2.7,2.1l1.3,0.6c0.1,0,8.2,3.5,14.9-0.1c3.5-1.9,5.7-4.5,6.7-8c0.3-1.1,0.5-2.2,0.6-3.3
				c0.1-5.7-1.7-12-7.4-13.6c3.3-11.9-4.7-24.3-14.7-26.6c2.1,7,1.7,12.9-1.2,17.6c-5.2,8.6-16.4,9.8-16.9,9.8l-0.4-3.6
				c0.1,0,10-1.1,14.2-8.1c2.5-4.1,1.9-8.5,0.4-16.1c-0.3,0,0.3,0,0,0c-0.8-8.1-11.2-18.5-22.7-16.2
				C683.9,135.4,684.3,141.2,682.5,146.4z"/>
			<path class="st15" d="M664.7,215.8c-1.8,0-3.6-0.1-5.6-0.4c-7.1-1.1-12.9-7.1-15.7-10.6l-0.1-0.2v-51.3l0.5-0.1
				c8.4-1.6,15-0.5,19.5,3.3c6.2,5.3,6.9,14.3,6.9,17.9l0,0.4l-0.4,0.1c-4.6,1.3-7.6,4.5-8.5,5.7l2,1.4c1.7-2,9-9.5,20.5-1.9l1.4-2
				c-4.1-2.7-8.1-3.9-11.9-3.7l-0.6,0l0-0.6c-0.1-2.7-0.5-8-3-13l-0.2-0.5l0.5-0.3c3.4-2,9.6-6.4,12.1-13.9c1.7-5.1,1.4-10.8-1-16.8
				l-0.2-0.6l0.7-0.1c5.1-1,10.5,0.3,15.2,3.7c4.5,3.3,7.7,8.3,8.2,12.6c0.1,0.1,0.1,0.3,0.1,0.3c0,0,0,0.1,0,0.2
				c1.5,7.1,2.1,11.8-0.5,16.2c-3.8,6.2-11.9,7.9-14.1,8.3l0.2,2.5c2.4-0.3,11.5-2.1,15.9-9.5c2.7-4.5,3.1-10.3,1.1-17.1l-0.3-0.9
				l0.9,0.2c5,1.2,9.6,4.8,12.7,9.9c3.1,5.2,4,11.4,2.6,16.9c4.8,1.6,7.5,6.8,7.3,14c-0.1,1.3-0.3,2.4-0.6,3.5
				c-1.1,3.7-3.3,6.4-7,8.3c-6.8,3.6-15,0.2-15.3,0.1l-1.4-0.6c-1.1-0.6-2-1.4-2.8-2.2c-3.6-3.9-3.8-9.4-3.8-11.2l-2.5-0.2
				c-0.1,1.9,0.1,8.3,4.4,13.1c1.1,1.1,2.3,2.1,3.7,2.9l0.4,0.2l-0.1,0.4c-1.3,5-3.9,8.5-7.5,10.5c-5.8,3.2-13.1,1.7-15.9,0.9
				l-0.8-0.2l0.6-0.7c4.1-4.9,5-10.7,5.2-12.5l-2.5-0.1c-0.2,2-1.5,9-7.1,13.5C674.5,214.4,670,215.8,664.7,215.8z M644.4,204.2
				c2.7,3.4,8.2,9,14.8,10c7.6,1.2,13.7,0,17.9-3.5c6.1-5,6.7-13.2,6.7-13.3l0-0.6l4.7,0.3l0,0.6c0,0.3-0.4,7.1-5,13.1
				c3.1,0.7,9.3,1.7,14.3-1.1c3.2-1.8,5.5-5,6.8-9.4c-1.3-0.8-2.6-1.8-3.6-2.9c-5.4-5.9-4.7-14.1-4.7-14.5l0-0.6l4.7,0.4l0,0.6
				c0,0.1-0.5,6.6,3.5,10.9c0.7,0.7,1.5,1.4,2.5,2l1.3,0.6c0.3,0.1,8.1,3.3,14.4,0c3.3-1.8,5.4-4.3,6.4-7.6c0.3-1,0.5-2.1,0.6-3.2
				c0.1-2.6-0.3-11.2-7-13l-0.6-0.1l0.2-0.5c1.5-5.4,0.7-11.5-2.4-16.6c-2.7-4.5-6.7-7.8-11-9.1c1.8,6.7,1.3,12.5-1.5,17.1
				c-5.3,8.8-16.9,10-17.4,10.1l-0.6,0.1l-0.5-4.7l0.6-0.1c0.1,0,9.7-1.1,13.8-7.8c2.2-3.7,1.9-7.5,0.4-15.2l-0.1,0l0-0.3
				c-0.1-0.1-0.1-0.3-0.1-0.3c0,0,0-0.1,0.1-0.3c-0.5-4.1-3.5-8.7-7.8-11.9c-4.2-3.1-9-4.4-13.6-3.7c2.2,6,2.5,11.7,0.7,16.9l0,0
				c-2.5,7.5-8.5,12-12.1,14.2c2.2,4.7,2.8,9.6,2.9,12.4c4-0.1,8.3,1.4,12.5,4.3l0.5,0.3l-2.7,3.9l-0.5-0.3
				c-12.3-8.4-19.5,1.4-19.8,1.8l-0.3,0.5l-3.9-2.7l0.3-0.5c0,0,3.3-4.6,9.1-6.4c-0.1-3.1-0.8-11.8-6.5-16.6
				c-4.1-3.5-10.2-4.6-18.1-3.1V204.2z"/>
		</g>
		<g>
			<linearGradient id="SVGID_3_" gradientUnits="userSpaceOnUse" x1="643.8461" y1="137.2973" x2="680.0073" y2="137.2973">
				<stop  offset="0" style="stop-color:#E51E3B"/>
				<stop  offset="1" style="stop-color:#EA4E57"/>
			</linearGradient>
			<path class="st17" d="M665.2,154.2c1.2,1,2.2,2.1,3,3.3c3-1.7,8.6-5.7,10.8-12.3c1.8-5.4,1-11.5-2.5-18.1
				c-2.8-4.5-8.6-10.1-17-10.1c-10.6,0-15.8,8.7-15.8,19.9c0,2,0,6.7,0,13.2C652.9,148.5,660.1,149.9,665.2,154.2z"/>
			<path class="st15" d="M668.1,158.3l-0.3-0.4c-0.9-1.2-1.9-2.3-3-3.2c-5-4.2-12-5.6-20.9-4l-0.7,0.1v-13.9
				c0-12.6,6.3-20.4,16.3-20.4c10.3,0,16,7.9,17.5,10.4c3.5,6.8,4.4,13.1,2.5,18.6c-2.2,6.7-7.9,10.7-11.1,12.6L668.1,158.3z
				 M650.8,148.9c6,0,11,1.6,14.8,4.9h0c1,0.9,2,1.9,2.8,3c3.1-1.9,8.1-5.7,10.1-11.7c1.7-5.2,0.9-11.2-2.4-17.7
				c-1.4-2.3-6.8-9.8-16.5-9.8c-11.2,0-15.2,10-15.2,19.3v12.5C646.7,149.1,648.8,148.9,650.8,148.9z"/>
		</g>
	</g>
	<g>
		<g>
			<linearGradient id="SVGID_4_" gradientUnits="userSpaceOnUse" x1="549.4122" y1="182.7712" x2="605.1575" y2="182.7712">
				<stop  offset="0" style="stop-color:#1854A2"/>
				<stop  offset="1" style="stop-color:#6FA1D7"/>
			</linearGradient>
			<path class="st18" d="M566.8,190.8c4.8,1,9.1,4.2,11.6,8.7c1,1.8,1.7,3.6,2,5.4c5.1-0.2,9.4-2.2,11.5-5.3
				c1.8-2.6,1.8-5.9,0.1-9.5l-1-2.2l2.4-0.4c4.5-0.7,10-4,11.1-7.8c1.7-5.7,0.6-11.2-3.4-17.5c-1.1,0.5-2.2,1-3.4,1.4
				c-5.6,1.7-11.5,0.6-17.8-3c-1.8,3.2-6.3,9.5-13.7,11.5c-2.1,0.6-4.2,0.8-6.3,0.8c-1.2,0-2.4-0.1-3.6-0.3
				c-7.6,2.7-7.7,14.2-5.6,20.2C554.9,191.1,560.8,189.6,566.8,190.8z"/>
			<path class="st15" d="M579.9,205.5l-0.1-0.5c-0.3-1.8-0.9-3.5-1.9-5.2c-2.5-4.3-6.7-7.5-11.3-8.4c-5.9-1.2-11.9,0.4-15.9,1.9
				l-0.5,0.2l-0.2-0.6c-1.5-4.2-1.8-11,0.4-15.7c1.2-2.6,3.1-4.3,5.6-5.2l0.1,0l0.1,0c1.2,0.2,2.4,0.2,3.5,0.2
				c2.1,0,4.2-0.3,6.2-0.8c7.1-1.9,11.4-7.8,13.4-11.2l0.3-0.5l0.5,0.3c6.1,3.6,12,4.6,17.4,2.9c1.1-0.3,2.2-0.8,3.3-1.3l0.5-0.2
				l0.3,0.4c4.1,6.5,5.2,12.1,3.5,18c-1.2,4-6.9,7.5-11.5,8.2l-1.6,0.3l0.7,1.5c1.8,3.8,1.7,7.3-0.1,10.1c-2.1,3.2-6.6,5.3-11.9,5.5
				L579.9,205.5z M566.9,190.3c4.9,1,9.4,4.4,12,9c0.9,1.7,1.6,3.4,1.9,5.1c4.7-0.3,8.7-2.2,10.6-5c1.6-2.5,1.7-5.6,0.1-9l-1.3-2.8
				l3.1-0.5c4.3-0.7,9.6-3.8,10.6-7.4c1.6-5.4,0.6-10.6-3.1-16.7c-1,0.5-2,0.9-3,1.2c-5.6,1.7-11.5,0.7-17.8-2.8
				c-2.1,3.6-6.6,9.4-13.8,11.3c-2.1,0.6-4.3,0.8-6.4,0.8c-1.1,0-2.3-0.1-3.5-0.2c-2.1,0.8-3.7,2.3-4.8,4.6
				c-2,4.2-1.8,10.3-0.6,14.3C555,190.5,561,189.1,566.9,190.3L566.9,190.3z"/>
		</g>
		<g>
			<linearGradient id="SVGID_5_" gradientUnits="userSpaceOnUse" x1="556.0957" y1="169.0312" x2="635.9309" y2="169.0312">
				<stop  offset="0" style="stop-color:#1854A2"/>
				<stop  offset="1" style="stop-color:#6FA1D7"/>
			</linearGradient>
			<path class="st19" d="M565.2,168.6c8.2-2.2,12.2-11.2,12.3-11.3l0.9-1.9l1.8,1.2c5.9,3.9,11.5,5.1,16.5,3.6
				c7.4-2.2,11.7-9.8,12.7-11.8c-1.4-2.2-2.4-4.9-3.1-8l3.5-0.8c1.4,5.9,3.9,9.7,7.4,11.4c5.1,2.5,11-0.3,11-0.3l1.6,3.3
				c-0.2,0.1-3.6,1.7-7.8,1.7c-2,0-4.2-0.4-6.3-1.4c-1.4-0.7-2.7-1.6-3.8-2.7c-1.3,2.3-3.9,6-7.7,8.9c3.1,4.9,6.3,12,3.8,20.5
				c-1.2,4.1-5.4,7.4-9.8,9.2c7.4,4.9,13.6,6.6,18.6,4.9c6.5-2.2,8.7-9.5,8.7-9.6l3.5,1c-0.1,0.4-2.8,9.1-11,12
				c-1.7,0.6-3.4,0.8-5.2,0.8c-4.8,0-10.1-1.9-16-5.7c0.4,3-0.2,5.8-1.8,8.3c-1.8,2.7-4.8,4.8-8.4,5.9c6.6,0.6,14.2,3.6,18,13.4
				c2.1-5.1,6.2-9.4,11.5-11.7c6.3-2.7,13.3-2.3,19.9,1c0-30.3,0-65,0-73.4c0-11.2-5.2-19.9-15.8-19.9c-10.6,0-17.1,8.9-18.5,13.2
				c-12.8-5.5-25.3,6.5-25.3,15.2c-11-1.1-21.4,10.9-20.1,23.5C559.1,169.4,562.2,169.4,565.2,168.6z"/>
			<path class="st15" d="M604.5,222.5l-0.5-1.3c-3.1-7.9-9-12.3-17.5-13.1l-2.9-0.2l2.7-0.9c3.5-1.1,6.3-3.1,8.1-5.7
				c1.5-2.3,2.1-5,1.7-7.9l-0.2-1.2l1,0.7c8,5.2,15,6.8,20.7,4.8c6.9-2.4,9.8-9.1,10.5-11l-2.4-0.7c-0.7,1.8-3.2,7.5-8.9,9.4
				c-5.1,1.7-11.6,0.1-19.1-4.9l-0.9-0.6l1-0.4c3.8-1.5,8.3-4.6,9.5-8.8c1.9-6.5,0.6-13-3.8-20l-0.3-0.4l0.4-0.3
				c3.7-2.7,6.1-6.3,7.5-8.7l0.4-0.6l0.5,0.5c1.1,1.1,2.3,2,3.6,2.6c1.8,0.9,3.9,1.3,6.1,1.3c3.2,0,5.9-0.9,7-1.4l-1.1-2.2
				c-1.6,0.6-6.5,2.2-11,0.1c-3.6-1.7-6.1-5.5-7.6-11.2l-2.4,0.6c0.7,2.8,1.7,5.3,2.9,7.3l0.2,0.3l-0.1,0.3
				c-1.1,2.3-5.5,9.9-13.1,12.1c-5.2,1.5-10.9,0.3-16.9-3.7l-1.2-0.8l-0.6,1.3c-0.2,0.4-4.3,9.4-12.6,11.6l0,0
				c-2.9,0.8-6,0.9-9.2,0.4l-0.4-0.1l0-0.4c-0.7-6.7,1.8-13.6,6.7-18.5c3.9-3.9,8.7-5.9,13.4-5.6c0.3-4.6,3.8-10,8.8-13.3
				c3.1-2,9.3-4.9,16.6-2c1.8-4.6,8.3-13.1,18.9-13.1c10.1,0,16.3,7.8,16.3,20.4v74.3l-0.8-0.4c-6.4-3.2-13.3-3.6-19.4-1
				c-5.1,2.2-9.2,6.3-11.2,11.4L604.5,222.5z M588.8,207.3c5.6,1,12,4,15.7,12.3c2.3-4.8,6.3-8.6,11.3-10.7c6.1-2.6,13-2.4,19.5,0.6
				v-72.5c0-9.3-4-19.3-15.2-19.3c-10.4,0-16.6,8.7-18,12.9l-0.2,0.6l-0.6-0.2c-7.1-3.1-13.2-0.3-16.1,1.7c-4.9,3.2-8.4,8.6-8.4,13
				v0.6l-0.6-0.1c-4.6-0.5-9.3,1.5-13.1,5.2c-4.6,4.6-7,11-6.5,17.2c2.9,0.4,5.7,0.3,8.3-0.4l0,0c7.8-2.1,11.8-10.9,11.9-11l1.1-2.6
				l2.3,1.5c5.8,3.8,11.2,5,16,3.5c6.9-2,11-8.8,12.2-11.3c-1.3-2.2-2.3-4.9-3.1-7.9l-0.1-0.6l4.6-1.1l0.1,0.5
				c1.3,5.7,3.7,9.4,7.1,11c4.8,2.3,10.5-0.3,10.5-0.3l0.5-0.2l2.1,4.3l-0.5,0.2c-0.4,0.2-3.7,1.7-8,1.7c-2.4,0-4.6-0.5-6.6-1.4
				c-1.2-0.6-2.4-1.4-3.4-2.3c-1.5,2.4-3.8,5.5-7.1,8.1c4.4,7.1,5.6,13.8,3.6,20.5c-1.2,4.2-5.4,7.4-9.2,9.2
				c6.9,4.4,12.7,5.8,17.3,4.2c6.2-2.1,8.4-9.1,8.4-9.2l0.2-0.5l4.5,1.3l-0.2,0.5c-0.1,0.4-2.9,9.4-11.4,12.3
				c-5.8,2-12.9,0.5-20.7-4.3c0.1,2.7-0.5,5.3-2,7.5C593.8,204.2,591.6,206,588.8,207.3z"/>
		</g>
		<g>
			<linearGradient id="SVGID_6_" gradientUnits="userSpaceOnUse" x1="543.8248" y1="240.5709" x2="635.9309" y2="240.5709">
				<stop  offset="0" style="stop-color:#1854A2"/>
				<stop  offset="1" style="stop-color:#6FA1D7"/>
			</linearGradient>
			<path class="st20" d="M617.5,212.6c-5.7,2.4-9.8,7.6-10.6,13.6l-0.3,2.3l-2.1-0.8c-4.8-1.9-10.7-1.1-14,0.7
				c-5.6,3-9.5,10.3-5.9,19.4c6.5-1.6,12.9,1,17.8,7.2c0,0,0,0,0.1,0c6-4.7,13.9-4.3,21.7,1l-2,3c-6.4-4.4-12.8-4.8-17.5-1.1
				c-4.4,3.4-6.2,9.6-4.4,14.8l-3.4,1.2c-1.9-5.4-0.7-11.7,2.9-16.2c-4.1-5.4-9.3-7.7-14.6-6.2c-5.3,1.4-9.4,6.5-9.7,11.9l-3.6-0.2
				c0.3-5.9,4-11.3,9.3-14c-4.2-10.7,0.4-20,7.6-23.8c3-1.6,7.9-2.7,12.8-2c-4.5-12.8-16-12.9-22.9-11.7l-3,0.5l1-2.9
				c0.7-2.2,0.3-5.1-1.3-7.9c-2-3.6-5.5-6.2-9.2-6.9c-6.1-1.3-12.4,0.9-16.2,2.7c-6.7,5.9-9.6,21.3,1.3,30c-5.1,9.1,6,18.8,8.2,20.2
				c0.2,17.3,16.1,27.2,25.5,25.5c9.1,17.6,51.2,25,51.2-13.8c0-3.8,0-22.7,0-44.5C629.9,210.9,623.3,210.2,617.5,212.6z"/>
			<path class="st15" d="M611.7,287.7c-11,0-22.6-5.8-27.2-14.3c-4.8,0.7-10.9-1.4-15.9-5.5c-3.6-3-9.6-9.5-9.9-20.3
				c-3.1-2.2-12.8-11.5-8.3-20.4c-4.4-3.7-7-9-7.1-14.9c-0.1-6.1,2.3-12.2,6.2-15.6l0.1-0.1c4.2-1.9,10.5-4,16.6-2.7
				c3.9,0.8,7.5,3.5,9.6,7.2c1.6,2.9,2.1,6,1.3,8.3l-0.7,2l2.1-0.4c6.8-1.2,18.9-1.3,23.5,12l0.3,0.9l-0.9-0.1
				c-5.2-0.7-9.9,0.6-12.5,2c-6.5,3.5-11.6,12.3-7.3,23.1l0.2,0.5l-0.5,0.2c-5,2.6-8.4,7.6-8.9,13l2.5,0.1
				c0.5-5.5,4.7-10.4,10.1-11.9c5.4-1.5,10.9,0.9,15.2,6.4l0.3,0.4l-0.3,0.3c-3.4,4.3-4.6,10.1-3,15.1l2.3-0.8
				c-1.6-5.3,0.3-11.4,4.7-14.9c4.8-3.7,11.2-3.4,17.7,0.8l1.4-2.1c-7.4-4.8-14.9-5.1-20.6-0.7l-0.5,0.4l-0.3-0.4
				c-4.8-6.1-10.9-8.6-17.2-7l-0.5,0.1l-0.2-0.5c-3.8-9.5,0.4-17,6.2-20.1c3.4-1.9,9.5-2.7,14.5-0.8l1.5,0.6l0.2-1.6
				c0.8-6.1,5-11.5,11-14l0,0c5.9-2.5,12.7-1.9,19,1.8l0.3,0.2V259c0,20.5-11.3,26.3-18.1,27.9C616.3,287.5,614,287.7,611.7,287.7z
				 M585.1,272.2l0.2,0.4c5.2,9.9,20.8,16.2,32.9,13.3c6.4-1.6,17.2-7.1,17.2-26.8v-44.2c-5.9-3.4-12.2-3.9-17.7-1.6l0,0
				c-5.6,2.4-9.5,7.4-10.3,13.1l-0.4,3l-2.8-1.1c-4.7-1.8-10.4-1-13.5,0.7c-5.3,2.9-9,9.6-5.9,18.2c6.4-1.4,12.6,1.1,17.6,7.1
				c6.2-4.5,14.1-4.1,22,1.3l0.5,0.3l-2.7,3.9l-0.5-0.3c-6.2-4.2-12.3-4.6-16.8-1.2c-4.2,3.2-5.9,9.2-4.2,14.1l0.2,0.5l-4.5,1.6
				l-0.2-0.5c-1.9-5.3-0.9-11.7,2.7-16.4c-4-5-8.8-7-13.7-5.7c-5.1,1.4-9,6.2-9.3,11.4l0,0.6l-4.7-0.2l0-0.6
				c0.3-5.8,3.9-11.4,9.1-14.3c-4.2-11.3,1.2-20.4,8-24.1c2.6-1.4,7.2-2.7,12.2-2.2c-4.6-11.7-15.6-11.6-21.9-10.4l-4,0.7l1.3-3.8
				c0.7-2,0.2-4.8-1.3-7.4c-2-3.4-5.3-5.9-8.9-6.7c-5.8-1.2-11.8,0.8-15.8,2.6c-3.6,3.2-5.9,9-5.7,14.7c0.1,5.7,2.6,10.8,7,14.4
				l0.4,0.3l-0.2,0.4c-4.7,8.5,5.3,17.7,8,19.5l0.2,0.2l0,0.3c0.1,10.5,6,16.9,9.5,19.8c4.8,4,10.8,6,15.4,5.2L585.1,272.2z"/>
		</g>
	</g>
</g>
</svg>
